<svg id="Layer_1" data-name="Layer 1" xmlns="http://www.w3.org/2000/svg" viewBox="0 0 401 100"><defs><style>.cls-1{fill:#fc1d42;}.cls-2{fill:#fff;}.cls-3{fill:#212121;}</style></defs><title>RB_Screen_Logos_Artwork</title><rect class="cls-1" x="99.17" y="18.76" width="301.47" height="75.91"/><path class="cls-2" d="M127.12,61.5l5.3,16.86h8.49l-6.35-18.81.2-.12c4.26-2.66,4.85-7,4.85-11.27,0-9.29-3.45-13.08-11.9-13.08H115.49V78.36h8.16V61.29h3.41Zm-3.48-19.13h4c3.81,0,3.81,3.62,3.81,5.78s0,5.84-3.81,5.84h-4Z"/><polygon class="cls-2" points="165.72 42.37 165.72 35.07 146.1 35.07 146.1 78.36 165.72 78.36 165.72 71.06 154.26 71.06 154.26 59.99 164.12 59.99 164.12 52.7 154.26 52.7 154.26 42.37 165.72 42.37"/><path class="cls-2" d="M196.35,56.65c0-8.33-.22-14-3.19-17.43a11.37,11.37,0,0,0-9.39-4.15H171.67V78.36h12.09a11.37,11.37,0,0,0,9.39-4.15C196.12,70.83,196.35,64.8,196.35,56.65ZM187.11,69a3.78,3.78,0,0,1-3.53,2.07h-3.75V42.37h3.75a3.78,3.78,0,0,1,3.53,2.07c1.08,2.09,1.08,7.24,1.08,12.21S188.19,66.89,187.11,69Z"/><path class="cls-2" d="M233.53,57.35a7.41,7.41,0,0,0-2-1.49l-.5-.27.51-.26a7.24,7.24,0,0,0,2-1.42c1.62-1.62,2.32-3.77,2.32-7.19,0-4.62-.71-6.87-2.81-8.91-1.91-1.85-4.85-2.75-9-2.75h-12.4V78.36h12.4c4.17,0,7.08-.92,8.91-2.81,2.12-2.18,2.87-4.74,2.87-9.78C235.85,61.33,235.24,59.12,233.53,57.35ZM222.9,71.06h-3.07V59.13h3.07c3.45,0,4.79,1.67,4.79,6C227.69,68.87,226.91,71.06,222.9,71.06ZM223,52.33h-3.19v-10H223c3.89,0,4.67,1.91,4.67,5S226.9,52.33,223,52.33Z"/><path class="cls-2" d="M259.31,71.52l1.42,6.84h8.5L258.1,35.07h-8.17L238.81,78.36h8.5l1.42-6.84ZM254,46.2l3.75,18h-7.51Z"/><path class="cls-2" d="M298.33,56.65c0-8.33-.22-14-3.19-17.43a11.37,11.37,0,0,0-9.39-4.15H273.66V78.36h12.09a11.37,11.37,0,0,0,9.39-4.15C298.11,70.83,298.33,64.8,298.33,56.65ZM289.1,69a3.78,3.78,0,0,1-3.53,2.07h-3.75V42.37h3.75a3.78,3.78,0,0,1,3.53,2.07c1.08,2.09,1.08,7.24,1.08,12.21S290.18,66.89,289.1,69Z"/><path class="cls-2" d="M303.84,56.72c0,8.65.22,14.17,3.2,17.81a11.29,11.29,0,0,0,9.38,4.33c7.57,0,12.09-4.93,12.09-13.2V54.79H316.72v6.49h3.64v4.86c0,3.44-1.43,5.41-3.93,5.41a3.33,3.33,0,0,1-3.22-1.89c-1-1.94-1.2-6.58-1.2-13s.2-11,1.2-13a3.33,3.33,0,0,1,3.22-1.89c3.53,0,3.85,3.52,3.92,5.18h8.15c-.24-3.93-1.5-7.13-3.65-9.29a11.64,11.64,0,0,0-8.42-3.18A11.28,11.28,0,0,0,307,38.91C304.06,42.55,303.84,48.06,303.84,56.72Z"/><polygon class="cls-2" points="354.21 42.37 354.21 35.07 334.59 35.07 334.59 78.36 354.21 78.36 354.21 71.06 342.75 71.06 342.75 59.99 352.61 59.99 352.61 52.7 342.75 52.7 342.75 42.37 354.21 42.37"/><path class="cls-2" d="M371.8,61.5l5.3,16.86h8.49l-6.35-18.81.2-.12c4.26-2.66,4.85-7,4.85-11.27,0-9.29-3.45-13.08-11.9-13.08H360.17V78.36h8.16V61.29h3.41Zm-3.48-19.13h4c3.81,0,3.81,3.62,3.81,5.78s0,5.84-3.81,5.84h-4Z"/><path class="cls-3" d="M81.87,60.44c-2.54-1-7.47-4.93-9.86-8.84A56.23,56.23,0,0,1,68.9,45c-.49-1.22-1-2.42-1.49-3.61-1-2.37-1.94-4.72-2.81-6.63,7.7-4.16,15.91-9.35,15.91-13.26,0-9.74-24.23-18.66-39-18.35-.73,0-1.47.06-2.21.12a5.05,5.05,0,0,0-6-3.14,5.56,5.56,0,0,0-4.61,5.54A33.73,33.73,0,0,0,17,12.48a32,32,0,0,0-3.93,4.67C7,14.92.05,19.81,0,26.28c0,4.46,1.74,7,5.08,9.1l0,.1c-9.39,31.33,4.1,53.25,10.21,58.7,3.86,3.44,6.68,5.82,12.48,5.82,4.9,0,6.33-1.14,5.86-3.86A53.34,53.34,0,0,1,33,89.09c2.08.15,4.52.32,7.13.41-.3,2.72-.65,5.18-1,6.85-.47,2.62.27,3.59,6.58,3.59,5.78,0,7.31-.92,11.2-4.36,3.6-3.19,6-7.71,7.6-12.88,5.67-6.06,8.4-12.12,8.82-19.2,3.27.76,6.23.83,8.73-.93C83.14,61.84,83.09,60.93,81.87,60.44Z"/><path class="cls-2" d="M69.6,24.27v0a3.07,3.07,0,0,1-.37-.54c-.93-1.75,0-4.09,2-5.54h0a.88.88,0,0,0,.12-1.42c-7.69-5.83-19.38-9.18-28.9-9-6.33.12-12.46,1.48-17.71,4.8h0l-.12.08c-1,.71-.38,1.5.44,1.32,12.75-2.8,37.69.93,36.89,6.45-.48,3.31-33,.34-48.35,12.5C11,35,9,39.22,7.54,46.47A67.49,67.49,0,0,0,6.62,59c.11,4.09,1.26,3.59,2.6,1.28,3.31-5.66,8.09-11.72,14.13-15.36,18.77-11.31,32.79-9.3,46.22-19.11A1.08,1.08,0,0,0,69.6,24.27Z"/></svg>