<svg xmlns="http://www.w3.org/2000/svg" xmlns:xlink="http://www.w3.org/1999/xlink" width="500" zoomAndPan="magnify" viewBox="0 0 375 374.999991" height="500" preserveAspectRatio="xMidYMid meet" version="1.0"><defs><clipPath id="2b34b630bc"><path d="M 11.703125 15.828125 L 361 15.828125 L 361 365 L 11.703125 365 Z M 11.703125 15.828125 " clip-rule="nonzero"/></clipPath><clipPath id="77b59f9aca"><path d="M 360.746094 124.875 L 291.238281 36.347656 L 195.734375 111.328125 L 120.75 15.828125 L 32.222656 85.316406 L 107.207031 180.835938 L 11.703125 255.800781 L 81.191406 344.328125 L 176.695312 269.34375 L 251.675781 364.847656 L 340.203125 295.359375 L 265.222656 199.855469 L 360.746094 124.875 " clip-rule="nonzero"/></clipPath><clipPath id="4786422313"><path d="M 46 50.296875 L 227.3125 50.296875 L 227.3125 309 L 46 309 Z M 46 50.296875 " clip-rule="nonzero"/></clipPath><clipPath id="67d8edfe2b"><path d="M 132.308594 170.496094 L 143.886719 185.257812 L 129.125 196.835938 L 46.011719 262.085938 L 82.632812 308.722656 L 165.746094 243.472656 L 180.507812 231.894531 L 227.144531 195.296875 L 190.523438 148.660156 L 178.945312 133.898438 L 113.695312 50.765625 L 67.058594 87.382812 L 132.308594 170.496094 " clip-rule="nonzero"/></clipPath><clipPath id="7d56d74567"><path d="M 197 216.566406 L 304 216.566406 L 304 330 L 197 330 Z M 197 216.566406 " clip-rule="nonzero"/></clipPath><clipPath id="20f7924ed5"><path d="M 197.214844 253.164062 L 257.335938 329.75 L 303.972656 293.128906 L 243.851562 216.566406 L 197.214844 253.164062 " clip-rule="nonzero"/></clipPath><clipPath id="d0a86847b4"><path d="M 212.441406 71.25 L 325.316406 71.25 L 325.316406 178.039062 L 212.441406 178.039062 Z M 212.441406 71.25 " clip-rule="nonzero"/></clipPath><clipPath id="eda064ee49"><path d="M 325.019531 118.425781 L 288.398438 71.789062 L 212.460938 131.402344 L 249.082031 178.039062 L 325.019531 118.425781 " clip-rule="nonzero"/></clipPath><clipPath id="22e25c39bc"><path d="M 90 74 L 127 74 L 127 111 L 90 111 Z M 90 74 " clip-rule="nonzero"/></clipPath><clipPath id="0f7d2e9140"><path d="M 97.148438 78.523438 C 105.625 71.851562 116.453125 73.796875 122.433594 81.402344 C 128.863281 89.574219 126.429688 97.320312 123.207031 101.273438 L 116.898438 96.972656 C 118.441406 95.066406 120.285156 90.851562 116.515625 86.046875 C 113.65625 82.394531 107.816406 80.347656 102.097656 84.828125 C 96.988281 88.84375 96.988281 94.925781 100.191406 99 C 103.902344 103.726562 108.523438 103.136719 110.898438 102.125 L 113.796875 109.222656 C 109.335938 111.289062 100.738281 112.203125 94.109375 103.746094 C 87.964844 95.917969 88.652344 85.191406 97.148438 78.523438 " clip-rule="nonzero"/></clipPath><clipPath id="1a0c70a691"><path d="M 139 132.078125 L 182 132.078125 L 182 174 L 139 174 Z M 139 132.078125 " clip-rule="nonzero"/></clipPath><clipPath id="7b0d139ef1"><path d="M 144.617188 146.125 L 162.320312 132.234375 L 167.164062 138.417969 L 149.96875 151.921875 C 146.605469 154.558594 147.539062 159.203125 149.828125 162.144531 C 152.121094 165.082031 156.359375 166.988281 159.722656 164.351562 L 176.917969 150.847656 L 181.765625 157.03125 L 164.0625 170.921875 C 157.109375 176.378906 148.53125 173.011719 143.746094 166.929688 C 138.960938 160.84375 137.664062 151.621094 144.617188 146.164062 " clip-rule="nonzero"/></clipPath><clipPath id="fe9249b7f9"><path d="M 111.058594 103.015625 L 151 103.015625 L 151 145.597656 L 111.058594 145.597656 Z M 111.058594 103.015625 " clip-rule="nonzero"/></clipPath><clipPath id="71be0017a7"><path d="M 134.621094 122.402344 C 136.628906 124.957031 139.101562 125.21875 141.070312 123.679688 C 143.136719 122.054688 143.359375 119.664062 141.375 117.109375 L 138.515625 113.457031 L 131.78125 118.75 L 134.621094 122.402344 M 128.152344 125.136719 L 126.429688 122.949219 L 116.089844 131.058594 L 111.222656 124.875 L 139 103.078125 L 147.636719 114.085938 C 151.9375 119.5625 150.945312 126.050781 146.015625 129.921875 C 142.265625 132.882812 137.765625 133.046875 133.871094 130.59375 L 127.078125 145.050781 L 121.726562 138.238281 L 128.152344 125.136719 " clip-rule="nonzero"/></clipPath><clipPath id="c83e0cbc47"><path d="M 163.101562 167.226562 L 193.519531 167.226562 L 193.519531 194.9375 L 163.101562 194.9375 Z M 163.101562 167.226562 " clip-rule="nonzero"/></clipPath><clipPath id="779c21cd84"><path d="M 182.820312 182.582031 L 182.492188 185.277344 L 179.796875 184.953125 L 164.570312 183.128906 L 163.535156 191.664062 L 178.761719 193.492188 L 181.460938 193.816406 L 189.996094 194.847656 L 191.03125 186.3125 L 191.355469 183.617188 L 193.179688 168.386719 L 184.644531 167.355469 L 182.820312 182.582031 " clip-rule="nonzero"/></clipPath><clipPath id="b051888622"><path d="M 179 197.640625 L 190 197.640625 L 190 213 L 179 213 Z M 179 197.640625 " clip-rule="nonzero"/></clipPath><clipPath id="5f85cb7d03"><path d="M 180.992188 197.726562 L 179.3125 211.757812 L 187.847656 212.792969 L 189.53125 198.761719 L 180.992188 197.726562 " clip-rule="nonzero"/></clipPath><clipPath id="e92685e269"><path d="M 194 186.148438 L 209 186.148438 L 209 197.640625 L 194 197.640625 Z M 194 186.148438 " clip-rule="nonzero"/></clipPath><clipPath id="86c4b9307e"><path d="M 207.941406 197.019531 L 208.976562 188.480469 L 195.066406 186.800781 L 194.03125 195.335938 L 207.941406 197.019531 " clip-rule="nonzero"/></clipPath></defs><g clip-path="url(#2b34b630bc)"><g clip-path="url(#77b59f9aca)"><path fill="#1e1e1e" d="M 1.566406 5.6875 L 370.597656 5.6875 L 370.597656 374.722656 L 1.566406 374.722656 Z M 1.566406 5.6875 " fill-opacity="1" fill-rule="nonzero"/></g></g><g clip-path="url(#4786422313)"><g clip-path="url(#67d8edfe2b)"><path fill="#f24a00" d="M 1.566406 5.6875 L 370.597656 5.6875 L 370.597656 374.722656 L 1.566406 374.722656 Z M 1.566406 5.6875 " fill-opacity="1" fill-rule="nonzero"/></g></g><g clip-path="url(#7d56d74567)"><g clip-path="url(#20f7924ed5)"><path fill="#f58600" d="M 1.566406 5.6875 L 370.597656 5.6875 L 370.597656 374.722656 L 1.566406 374.722656 Z M 1.566406 5.6875 " fill-opacity="1" fill-rule="nonzero"/></g></g><g clip-path="url(#d0a86847b4)"><g clip-path="url(#eda064ee49)"><path fill="#f24a00" d="M 1.566406 5.6875 L 370.597656 5.6875 L 370.597656 374.722656 L 1.566406 374.722656 Z M 1.566406 5.6875 " fill-opacity="1" fill-rule="nonzero"/></g></g><g clip-path="url(#22e25c39bc)"><g clip-path="url(#0f7d2e9140)"><path fill="#ffffff" d="M 1.566406 5.6875 L 370.597656 5.6875 L 370.597656 374.722656 L 1.566406 374.722656 Z M 1.566406 5.6875 " fill-opacity="1" fill-rule="nonzero"/></g></g><g clip-path="url(#1a0c70a691)"><g clip-path="url(#7b0d139ef1)"><path fill="#ffffff" d="M 1.566406 5.6875 L 370.597656 5.6875 L 370.597656 374.722656 L 1.566406 374.722656 Z M 1.566406 5.6875 " fill-opacity="1" fill-rule="nonzero"/></g></g><g clip-path="url(#fe9249b7f9)"><g clip-path="url(#71be0017a7)"><path fill="#ffffff" d="M 1.566406 5.6875 L 370.597656 5.6875 L 370.597656 374.722656 L 1.566406 374.722656 Z M 1.566406 5.6875 " fill-opacity="1" fill-rule="nonzero"/></g></g><g clip-path="url(#c83e0cbc47)"><g clip-path="url(#779c21cd84)"><path fill="#ffffff" d="M 1.566406 5.6875 L 370.597656 5.6875 L 370.597656 374.722656 L 1.566406 374.722656 Z M 1.566406 5.6875 " fill-opacity="1" fill-rule="nonzero"/></g></g><g clip-path="url(#b051888622)"><g clip-path="url(#5f85cb7d03)"><path fill="#ffffff" d="M 1.566406 5.6875 L 370.597656 5.6875 L 370.597656 374.722656 L 1.566406 374.722656 Z M 1.566406 5.6875 " fill-opacity="1" fill-rule="nonzero"/></g></g><g clip-path="url(#e92685e269)"><g clip-path="url(#86c4b9307e)"><path fill="#ffffff" d="M 1.566406 5.6875 L 370.597656 5.6875 L 370.597656 374.722656 L 1.566406 374.722656 Z M 1.566406 5.6875 " fill-opacity="1" fill-rule="nonzero"/></g></g></svg>